<mxfile host="app.diagrams.net" modified="2022-09-30T21:25:05.686Z" agent="5.0 (Windows NT 10.0; Win64; x64) AppleWebKit/537.36 (KHTML, like Gecko) Chrome/104.0.5112.102 Safari/537.36 OPR/90.0.4480.117" etag="52a9cZT5V87yemiTrL5g" version="20.4.0" type="github">
  <diagram id="mm6-sTuoJza8LTpx-BUW" name="PÃ¡gina-1">
    <mxGraphModel dx="973" dy="576" grid="1" gridSize="10" guides="1" tooltips="1" connect="1" arrows="1" fold="1" page="1" pageScale="1" pageWidth="827" pageHeight="1169" math="0" shadow="0">
      <root>
        <mxCell id="0" />
        <mxCell id="1" parent="0" />
        <mxCell id="wsspim9ZryKDVWts-WvL-30" style="edgeStyle=none;shape=connector;rounded=0;orthogonalLoop=1;jettySize=auto;html=1;entryX=0;entryY=0.5;entryDx=0;entryDy=0;labelBackgroundColor=default;strokeColor=default;strokeWidth=2;fontFamily=Helvetica;fontSize=12;fontColor=default;endArrow=none;" edge="1" parent="1" source="wsspim9ZryKDVWts-WvL-1" target="wsspim9ZryKDVWts-WvL-3">
          <mxGeometry relative="1" as="geometry" />
        </mxCell>
        <mxCell id="wsspim9ZryKDVWts-WvL-1" value="Estacionamento" style="rounded=0;whiteSpace=wrap;html=1;" vertex="1" parent="1">
          <mxGeometry x="85" y="80" width="120" height="60" as="geometry" />
        </mxCell>
        <mxCell id="wsspim9ZryKDVWts-WvL-31" style="edgeStyle=none;shape=connector;rounded=0;orthogonalLoop=1;jettySize=auto;html=1;entryX=0;entryY=0.5;entryDx=0;entryDy=0;labelBackgroundColor=default;strokeColor=default;strokeWidth=2;fontFamily=Helvetica;fontSize=12;fontColor=default;endArrow=none;" edge="1" parent="1" source="wsspim9ZryKDVWts-WvL-3" target="wsspim9ZryKDVWts-WvL-5">
          <mxGeometry relative="1" as="geometry" />
        </mxCell>
        <mxCell id="wsspim9ZryKDVWts-WvL-3" value="Oferece" style="rhombus;whiteSpace=wrap;html=1;" vertex="1" parent="1">
          <mxGeometry x="330" y="70" width="80" height="80" as="geometry" />
        </mxCell>
        <mxCell id="wsspim9ZryKDVWts-WvL-24" style="edgeStyle=none;shape=connector;rounded=0;orthogonalLoop=1;jettySize=auto;html=1;exitX=1;exitY=0.25;exitDx=0;exitDy=0;entryX=0.5;entryY=1;entryDx=0;entryDy=0;labelBackgroundColor=default;strokeColor=default;strokeWidth=2;fontFamily=Helvetica;fontSize=12;fontColor=default;endArrow=none;" edge="1" parent="1" source="wsspim9ZryKDVWts-WvL-5" target="wsspim9ZryKDVWts-WvL-8">
          <mxGeometry relative="1" as="geometry" />
        </mxCell>
        <mxCell id="wsspim9ZryKDVWts-WvL-73" value="" style="edgeStyle=none;shape=connector;rounded=0;orthogonalLoop=1;jettySize=auto;html=1;labelBackgroundColor=default;strokeColor=default;strokeWidth=2;fontFamily=Helvetica;fontSize=12;fontColor=default;endArrow=none;" edge="1" parent="1" source="wsspim9ZryKDVWts-WvL-5" target="wsspim9ZryKDVWts-WvL-72">
          <mxGeometry relative="1" as="geometry" />
        </mxCell>
        <mxCell id="wsspim9ZryKDVWts-WvL-218" style="edgeStyle=none;shape=connector;rounded=0;orthogonalLoop=1;jettySize=auto;html=1;entryX=0.307;entryY=1.333;entryDx=0;entryDy=0;entryPerimeter=0;labelBackgroundColor=default;strokeColor=default;strokeWidth=2;fontFamily=Helvetica;fontSize=12;fontColor=default;endArrow=none;" edge="1" parent="1" source="wsspim9ZryKDVWts-WvL-5" target="wsspim9ZryKDVWts-WvL-29">
          <mxGeometry relative="1" as="geometry" />
        </mxCell>
        <mxCell id="wsspim9ZryKDVWts-WvL-5" value="Vagas" style="rounded=0;whiteSpace=wrap;html=1;" vertex="1" parent="1">
          <mxGeometry x="707" y="80" width="120" height="60" as="geometry" />
        </mxCell>
        <mxCell id="wsspim9ZryKDVWts-WvL-27" value="" style="edgeStyle=none;shape=connector;rounded=0;orthogonalLoop=1;jettySize=auto;html=1;labelBackgroundColor=default;strokeColor=default;strokeWidth=2;fontFamily=Helvetica;fontSize=12;fontColor=default;endArrow=none;" edge="1" parent="1" source="wsspim9ZryKDVWts-WvL-8" target="wsspim9ZryKDVWts-WvL-23">
          <mxGeometry relative="1" as="geometry" />
        </mxCell>
        <mxCell id="wsspim9ZryKDVWts-WvL-8" value="status" style="ellipse;whiteSpace=wrap;align=right;rounded=0;shadow=0;glass=0;sketch=0;fontSize=12;strokeWidth=2;gradientColor=none;spacingRight=26;spacingBottom=0;" vertex="1" parent="1">
          <mxGeometry x="640" y="66" width="25" height="14" as="geometry" />
        </mxCell>
        <mxCell id="wsspim9ZryKDVWts-WvL-20" value="Ocupado" style="ellipse;whiteSpace=wrap;align=right;rounded=0;shadow=0;glass=0;sketch=0;fontSize=12;strokeWidth=2;gradientColor=none;spacingRight=26;spacingBottom=0;" vertex="1" parent="1">
          <mxGeometry x="635" y="26" width="25" height="14" as="geometry" />
        </mxCell>
        <mxCell id="wsspim9ZryKDVWts-WvL-21" value="" style="edgeStyle=none;shape=connector;rounded=0;orthogonalLoop=1;jettySize=auto;html=1;exitX=0.5;exitY=0;exitDx=0;exitDy=0;labelBackgroundColor=default;strokeColor=default;strokeWidth=2;fontFamily=Helvetica;fontSize=12;fontColor=default;endArrow=none;" edge="1" parent="1" source="wsspim9ZryKDVWts-WvL-8" target="wsspim9ZryKDVWts-WvL-20">
          <mxGeometry relative="1" as="geometry">
            <mxPoint x="663" y="60" as="targetPoint" />
            <mxPoint x="662.5" y="80" as="sourcePoint" />
          </mxGeometry>
        </mxCell>
        <mxCell id="wsspim9ZryKDVWts-WvL-23" value="livre" style="ellipse;whiteSpace=wrap;align=right;rounded=0;shadow=0;glass=0;sketch=0;fontSize=12;strokeWidth=2;gradientColor=none;spacingRight=26;spacingBottom=0;" vertex="1" parent="1">
          <mxGeometry x="551.5" y="40" width="25" height="14" as="geometry" />
        </mxCell>
        <mxCell id="wsspim9ZryKDVWts-WvL-29" value="identificador" style="ellipse;whiteSpace=wrap;align=right;rounded=0;shadow=0;glass=0;sketch=0;fontSize=12;strokeWidth=2;gradientColor=none;spacingRight=26;spacingBottom=0;" vertex="1" parent="1">
          <mxGeometry x="770" y="26" width="25" height="14" as="geometry" />
        </mxCell>
        <mxCell id="wsspim9ZryKDVWts-WvL-116" value="" style="edgeStyle=none;shape=connector;rounded=0;orthogonalLoop=1;jettySize=auto;html=1;labelBackgroundColor=default;strokeColor=default;strokeWidth=2;fontFamily=Helvetica;fontSize=12;fontColor=default;endArrow=none;" edge="1" parent="1" source="wsspim9ZryKDVWts-WvL-36" target="wsspim9ZryKDVWts-WvL-62">
          <mxGeometry relative="1" as="geometry" />
        </mxCell>
        <mxCell id="wsspim9ZryKDVWts-WvL-167" value="" style="edgeStyle=none;shape=connector;rounded=0;orthogonalLoop=1;jettySize=auto;html=1;labelBackgroundColor=default;strokeColor=default;strokeWidth=2;fontFamily=Helvetica;fontSize=12;fontColor=default;endArrow=none;" edge="1" parent="1" source="wsspim9ZryKDVWts-WvL-36" target="wsspim9ZryKDVWts-WvL-166">
          <mxGeometry relative="1" as="geometry" />
        </mxCell>
        <mxCell id="wsspim9ZryKDVWts-WvL-36" value="Cliente" style="rounded=0;whiteSpace=wrap;html=1;strokeWidth=2;fontFamily=Helvetica;fontSize=12;fontColor=default;" vertex="1" parent="1">
          <mxGeometry x="45" y="320" width="120" height="60" as="geometry" />
        </mxCell>
        <mxCell id="wsspim9ZryKDVWts-WvL-49" style="edgeStyle=none;shape=connector;rounded=0;orthogonalLoop=1;jettySize=auto;html=1;labelBackgroundColor=default;strokeColor=default;strokeWidth=2;fontFamily=Helvetica;fontSize=12;fontColor=default;endArrow=none;" edge="1" parent="1" source="wsspim9ZryKDVWts-WvL-45" target="wsspim9ZryKDVWts-WvL-36">
          <mxGeometry relative="1" as="geometry" />
        </mxCell>
        <mxCell id="wsspim9ZryKDVWts-WvL-45" value="Dono" style="rhombus;whiteSpace=wrap;html=1;strokeWidth=2;fontFamily=Helvetica;fontSize=12;fontColor=default;" vertex="1" parent="1">
          <mxGeometry x="270" y="320" width="60" height="60" as="geometry" />
        </mxCell>
        <mxCell id="wsspim9ZryKDVWts-WvL-47" value="" style="edgeStyle=none;shape=connector;rounded=0;orthogonalLoop=1;jettySize=auto;html=1;labelBackgroundColor=default;strokeColor=default;strokeWidth=2;fontFamily=Helvetica;fontSize=12;fontColor=default;endArrow=none;" edge="1" parent="1" source="wsspim9ZryKDVWts-WvL-46" target="wsspim9ZryKDVWts-WvL-45">
          <mxGeometry relative="1" as="geometry" />
        </mxCell>
        <mxCell id="wsspim9ZryKDVWts-WvL-226" style="edgeStyle=none;shape=connector;rounded=0;orthogonalLoop=1;jettySize=auto;html=1;entryX=0;entryY=0.5;entryDx=0;entryDy=0;labelBackgroundColor=default;strokeColor=default;strokeWidth=2;fontFamily=Helvetica;fontSize=12;fontColor=default;endArrow=none;" edge="1" parent="1" source="wsspim9ZryKDVWts-WvL-46" target="wsspim9ZryKDVWts-WvL-72">
          <mxGeometry relative="1" as="geometry" />
        </mxCell>
        <mxCell id="wsspim9ZryKDVWts-WvL-46" value="Carrro" style="rounded=0;whiteSpace=wrap;html=1;strokeWidth=2;fontFamily=Helvetica;fontSize=12;fontColor=default;" vertex="1" parent="1">
          <mxGeometry x="552.5" y="170" width="90" height="40" as="geometry" />
        </mxCell>
        <mxCell id="wsspim9ZryKDVWts-WvL-66" value="" style="edgeStyle=none;shape=connector;rounded=0;orthogonalLoop=1;jettySize=auto;html=1;labelBackgroundColor=default;strokeColor=default;strokeWidth=2;fontFamily=Helvetica;fontSize=12;fontColor=default;endArrow=none;" edge="1" parent="1" source="wsspim9ZryKDVWts-WvL-50" target="wsspim9ZryKDVWts-WvL-65">
          <mxGeometry relative="1" as="geometry" />
        </mxCell>
        <mxCell id="wsspim9ZryKDVWts-WvL-164" value="" style="edgeStyle=none;shape=connector;rounded=0;orthogonalLoop=1;jettySize=auto;html=1;labelBackgroundColor=default;strokeColor=default;strokeWidth=2;fontFamily=Helvetica;fontSize=12;fontColor=default;endArrow=none;" edge="1" parent="1" source="wsspim9ZryKDVWts-WvL-50" target="wsspim9ZryKDVWts-WvL-163">
          <mxGeometry relative="1" as="geometry" />
        </mxCell>
        <mxCell id="wsspim9ZryKDVWts-WvL-50" value="Manobrista" style="rounded=0;whiteSpace=wrap;html=1;strokeWidth=2;fontFamily=Helvetica;fontSize=12;fontColor=default;" vertex="1" parent="1">
          <mxGeometry x="280" y="170" width="100" height="40" as="geometry" />
        </mxCell>
        <mxCell id="wsspim9ZryKDVWts-WvL-69" value="" style="edgeStyle=none;shape=connector;rounded=0;orthogonalLoop=1;jettySize=auto;html=1;labelBackgroundColor=default;strokeColor=default;strokeWidth=2;fontFamily=Helvetica;fontSize=12;fontColor=default;endArrow=none;exitX=0.069;exitY=0.052;exitDx=0;exitDy=0;exitPerimeter=0;" edge="1" parent="1" source="wsspim9ZryKDVWts-WvL-62" target="wsspim9ZryKDVWts-WvL-68">
          <mxGeometry relative="1" as="geometry">
            <mxPoint x="63.05000000000001" y="564.88" as="sourcePoint" />
          </mxGeometry>
        </mxCell>
        <mxCell id="wsspim9ZryKDVWts-WvL-62" value="" style="triangle;whiteSpace=wrap;html=1;rounded=0;strokeWidth=2;direction=north;" vertex="1" parent="1">
          <mxGeometry x="65" y="420" width="80" height="60" as="geometry" />
        </mxCell>
        <mxCell id="wsspim9ZryKDVWts-WvL-222" style="edgeStyle=none;shape=connector;rounded=0;orthogonalLoop=1;jettySize=auto;html=1;entryX=0;entryY=0;entryDx=0;entryDy=0;labelBackgroundColor=default;strokeColor=default;strokeWidth=2;fontFamily=Helvetica;fontSize=12;fontColor=default;endArrow=none;" edge="1" parent="1" source="wsspim9ZryKDVWts-WvL-65" target="wsspim9ZryKDVWts-WvL-46">
          <mxGeometry relative="1" as="geometry" />
        </mxCell>
        <mxCell id="wsspim9ZryKDVWts-WvL-65" value="Conduz" style="rhombus;whiteSpace=wrap;html=1;rounded=0;strokeWidth=2;" vertex="1" parent="1">
          <mxGeometry x="410" y="160" width="60" height="60" as="geometry" />
        </mxCell>
        <mxCell id="wsspim9ZryKDVWts-WvL-113" value="" style="edgeStyle=none;shape=connector;rounded=0;orthogonalLoop=1;jettySize=auto;html=1;labelBackgroundColor=default;strokeColor=default;strokeWidth=2;fontFamily=Helvetica;fontSize=12;fontColor=default;endArrow=none;exitX=0.5;exitY=1;exitDx=0;exitDy=0;" edge="1" parent="1" source="wsspim9ZryKDVWts-WvL-68" target="wsspim9ZryKDVWts-WvL-112">
          <mxGeometry relative="1" as="geometry">
            <mxPoint x="99.99999999999996" y="850.0000000000001" as="sourcePoint" />
          </mxGeometry>
        </mxCell>
        <mxCell id="wsspim9ZryKDVWts-WvL-180" value="" style="edgeStyle=none;shape=connector;rounded=0;orthogonalLoop=1;jettySize=auto;html=1;labelBackgroundColor=default;strokeColor=default;strokeWidth=2;fontFamily=Helvetica;fontSize=12;fontColor=default;endArrow=none;" edge="1" parent="1" source="wsspim9ZryKDVWts-WvL-68" target="wsspim9ZryKDVWts-WvL-179">
          <mxGeometry relative="1" as="geometry" />
        </mxCell>
        <mxCell id="wsspim9ZryKDVWts-WvL-68" value="Cliente Mensalista" style="whiteSpace=wrap;html=1;rounded=0;strokeWidth=2;" vertex="1" parent="1">
          <mxGeometry x="30.000000000000014" y="585" width="80" height="60" as="geometry" />
        </mxCell>
        <mxCell id="wsspim9ZryKDVWts-WvL-76" value="" style="edgeStyle=none;shape=connector;rounded=0;orthogonalLoop=1;jettySize=auto;html=1;labelBackgroundColor=default;strokeColor=default;strokeWidth=2;fontFamily=Helvetica;fontSize=12;fontColor=default;endArrow=none;" edge="1" parent="1" source="wsspim9ZryKDVWts-WvL-70" target="wsspim9ZryKDVWts-WvL-75">
          <mxGeometry relative="1" as="geometry" />
        </mxCell>
        <mxCell id="wsspim9ZryKDVWts-WvL-205" style="edgeStyle=none;shape=connector;rounded=0;orthogonalLoop=1;jettySize=auto;html=1;entryX=-0.017;entryY=0.889;entryDx=0;entryDy=0;entryPerimeter=0;labelBackgroundColor=default;strokeColor=default;strokeWidth=2;fontFamily=Helvetica;fontSize=12;fontColor=default;endArrow=none;" edge="1" parent="1" source="wsspim9ZryKDVWts-WvL-70" target="wsspim9ZryKDVWts-WvL-62">
          <mxGeometry relative="1" as="geometry" />
        </mxCell>
        <mxCell id="wsspim9ZryKDVWts-WvL-229" value="" style="edgeStyle=none;shape=connector;rounded=0;orthogonalLoop=1;jettySize=auto;html=1;labelBackgroundColor=default;strokeColor=default;strokeWidth=2;fontFamily=Helvetica;fontSize=12;fontColor=default;endArrow=none;" edge="1" parent="1" source="wsspim9ZryKDVWts-WvL-70" target="wsspim9ZryKDVWts-WvL-228">
          <mxGeometry relative="1" as="geometry" />
        </mxCell>
        <mxCell id="wsspim9ZryKDVWts-WvL-70" value="Cliente avulso" style="whiteSpace=wrap;html=1;rounded=0;strokeWidth=2;" vertex="1" parent="1">
          <mxGeometry x="205" y="430" width="100" height="40" as="geometry" />
        </mxCell>
        <mxCell id="wsspim9ZryKDVWts-WvL-72" value="Recebe" style="rhombus;whiteSpace=wrap;html=1;rounded=0;" vertex="1" parent="1">
          <mxGeometry x="727" y="150" width="80" height="80" as="geometry" />
        </mxCell>
        <mxCell id="wsspim9ZryKDVWts-WvL-221" value="" style="edgeStyle=none;shape=connector;rounded=0;orthogonalLoop=1;jettySize=auto;html=1;labelBackgroundColor=default;strokeColor=default;strokeWidth=2;fontFamily=Helvetica;fontSize=12;fontColor=default;endArrow=none;" edge="1" parent="1" source="wsspim9ZryKDVWts-WvL-75" target="wsspim9ZryKDVWts-WvL-78">
          <mxGeometry relative="1" as="geometry" />
        </mxCell>
        <mxCell id="wsspim9ZryKDVWts-WvL-234" value="" style="edgeStyle=none;shape=connector;rounded=0;orthogonalLoop=1;jettySize=auto;html=1;labelBackgroundColor=default;strokeColor=default;strokeWidth=2;fontFamily=Helvetica;fontSize=12;fontColor=default;endArrow=none;" edge="1" parent="1" source="wsspim9ZryKDVWts-WvL-75" target="wsspim9ZryKDVWts-WvL-233">
          <mxGeometry relative="1" as="geometry" />
        </mxCell>
        <mxCell id="wsspim9ZryKDVWts-WvL-75" value="Recebe" style="rhombus;whiteSpace=wrap;html=1;rounded=0;strokeWidth=2;" vertex="1" parent="1">
          <mxGeometry x="360" y="415" width="80" height="70" as="geometry" />
        </mxCell>
        <mxCell id="wsspim9ZryKDVWts-WvL-92" value="" style="edgeStyle=none;shape=connector;rounded=0;orthogonalLoop=1;jettySize=auto;html=1;labelBackgroundColor=default;strokeColor=default;strokeWidth=2;fontFamily=Helvetica;fontSize=12;fontColor=default;endArrow=none;" edge="1" parent="1" source="wsspim9ZryKDVWts-WvL-78" target="wsspim9ZryKDVWts-WvL-91">
          <mxGeometry relative="1" as="geometry" />
        </mxCell>
        <mxCell id="wsspim9ZryKDVWts-WvL-103" style="edgeStyle=none;shape=connector;rounded=0;orthogonalLoop=1;jettySize=auto;html=1;labelBackgroundColor=default;strokeColor=default;strokeWidth=2;fontFamily=Helvetica;fontSize=12;fontColor=default;endArrow=none;" edge="1" parent="1" source="wsspim9ZryKDVWts-WvL-78" target="wsspim9ZryKDVWts-WvL-102">
          <mxGeometry relative="1" as="geometry" />
        </mxCell>
        <mxCell id="wsspim9ZryKDVWts-WvL-105" style="edgeStyle=none;shape=connector;rounded=0;orthogonalLoop=1;jettySize=auto;html=1;exitX=1;exitY=0.75;exitDx=0;exitDy=0;entryX=0;entryY=0.5;entryDx=0;entryDy=0;labelBackgroundColor=default;strokeColor=default;strokeWidth=2;fontFamily=Helvetica;fontSize=12;fontColor=default;endArrow=none;" edge="1" parent="1" source="wsspim9ZryKDVWts-WvL-78" target="wsspim9ZryKDVWts-WvL-104">
          <mxGeometry relative="1" as="geometry" />
        </mxCell>
        <mxCell id="wsspim9ZryKDVWts-WvL-78" value="Comprovante de entrada" style="whiteSpace=wrap;html=1;rounded=0;strokeWidth=2;" vertex="1" parent="1">
          <mxGeometry x="537.5" y="410" width="120" height="70" as="geometry" />
        </mxCell>
        <mxCell id="wsspim9ZryKDVWts-WvL-85" value="placa" style="ellipse;whiteSpace=wrap;align=right;rounded=0;shadow=0;glass=0;sketch=0;fontSize=12;strokeWidth=2;gradientColor=none;spacingRight=26;spacingBottom=0;fontFamily=Helvetica;fontColor=default;" vertex="1" parent="1">
          <mxGeometry x="599.5" y="280" width="25" height="14" as="geometry" />
        </mxCell>
        <mxCell id="wsspim9ZryKDVWts-WvL-87" value="cor" style="ellipse;whiteSpace=wrap;align=right;rounded=0;shadow=0;glass=0;sketch=0;fontSize=12;strokeWidth=2;gradientColor=none;spacingRight=26;spacingBottom=0;fontFamily=Helvetica;fontColor=default;" vertex="1" parent="1">
          <mxGeometry x="680" y="280" width="25" height="14" as="geometry" />
        </mxCell>
        <mxCell id="wsspim9ZryKDVWts-WvL-96" style="edgeStyle=none;shape=connector;rounded=0;orthogonalLoop=1;jettySize=auto;html=1;entryX=-0.001;entryY=0.898;entryDx=0;entryDy=0;entryPerimeter=0;labelBackgroundColor=default;strokeColor=default;strokeWidth=2;fontFamily=Helvetica;fontSize=12;fontColor=default;endArrow=none;" edge="1" parent="1" source="wsspim9ZryKDVWts-WvL-91" target="wsspim9ZryKDVWts-WvL-85">
          <mxGeometry relative="1" as="geometry" />
        </mxCell>
        <mxCell id="wsspim9ZryKDVWts-WvL-101" value="marca" style="edgeStyle=none;shape=connector;rounded=0;orthogonalLoop=1;jettySize=auto;html=1;entryX=0;entryY=0.5;entryDx=0;entryDy=0;labelBackgroundColor=default;strokeColor=default;strokeWidth=2;fontFamily=Helvetica;fontSize=12;fontColor=default;endArrow=none;" edge="1" parent="1" source="wsspim9ZryKDVWts-WvL-91" target="wsspim9ZryKDVWts-WvL-95">
          <mxGeometry x="1" y="31" relative="1" as="geometry">
            <mxPoint x="24" y="12" as="offset" />
          </mxGeometry>
        </mxCell>
        <mxCell id="wsspim9ZryKDVWts-WvL-143" style="edgeStyle=none;shape=connector;rounded=0;orthogonalLoop=1;jettySize=auto;html=1;entryX=0.358;entryY=1.035;entryDx=0;entryDy=0;entryPerimeter=0;labelBackgroundColor=default;strokeColor=default;strokeWidth=2;fontFamily=Helvetica;fontSize=12;fontColor=default;endArrow=none;" edge="1" parent="1" source="wsspim9ZryKDVWts-WvL-91" target="wsspim9ZryKDVWts-WvL-87">
          <mxGeometry relative="1" as="geometry" />
        </mxCell>
        <mxCell id="wsspim9ZryKDVWts-WvL-91" value="informaÃ§Ãµes do carro" style="ellipse;whiteSpace=wrap;html=1;rounded=0;strokeWidth=2;" vertex="1" parent="1">
          <mxGeometry x="624.5" y="340" width="80" height="40" as="geometry" />
        </mxCell>
        <mxCell id="wsspim9ZryKDVWts-WvL-95" value="" style="ellipse;whiteSpace=wrap;align=right;rounded=0;shadow=0;glass=0;sketch=0;fontSize=12;strokeWidth=2;gradientColor=none;spacingRight=26;spacingBottom=0;fontFamily=Helvetica;fontColor=default;" vertex="1" parent="1">
          <mxGeometry x="782" y="380" width="25" height="14" as="geometry" />
        </mxCell>
        <mxCell id="wsspim9ZryKDVWts-WvL-102" value="horÃ¡rio de chegada" style="ellipse;whiteSpace=wrap;html=1;rounded=0;strokeWidth=2;" vertex="1" parent="1">
          <mxGeometry x="519.5" y="350" width="80" height="40" as="geometry" />
        </mxCell>
        <mxCell id="wsspim9ZryKDVWts-WvL-104" value="nÃºmero da vaga" style="ellipse;whiteSpace=wrap;html=1;rounded=0;strokeWidth=2;" vertex="1" parent="1">
          <mxGeometry x="727" y="470" width="72" height="40" as="geometry" />
        </mxCell>
        <mxCell id="wsspim9ZryKDVWts-WvL-115" value="" style="edgeStyle=none;shape=connector;rounded=0;orthogonalLoop=1;jettySize=auto;html=1;labelBackgroundColor=default;strokeColor=default;strokeWidth=2;fontFamily=Helvetica;fontSize=12;fontColor=default;endArrow=none;" edge="1" parent="1" source="wsspim9ZryKDVWts-WvL-112" target="wsspim9ZryKDVWts-WvL-114">
          <mxGeometry relative="1" as="geometry" />
        </mxCell>
        <mxCell id="wsspim9ZryKDVWts-WvL-112" value="Registra" style="rhombus;whiteSpace=wrap;html=1;rounded=0;strokeWidth=2;" vertex="1" parent="1">
          <mxGeometry x="65" y="740.12" width="80" height="80" as="geometry" />
        </mxCell>
        <mxCell id="wsspim9ZryKDVWts-WvL-136" style="edgeStyle=none;shape=connector;rounded=0;orthogonalLoop=1;jettySize=auto;html=1;labelBackgroundColor=default;strokeColor=default;strokeWidth=2;fontFamily=Helvetica;fontSize=12;fontColor=default;endArrow=none;entryX=0.5;entryY=1;entryDx=0;entryDy=0;" edge="1" parent="1" source="wsspim9ZryKDVWts-WvL-114" target="wsspim9ZryKDVWts-WvL-154">
          <mxGeometry relative="1" as="geometry">
            <mxPoint x="230" y="850" as="targetPoint" />
          </mxGeometry>
        </mxCell>
        <mxCell id="wsspim9ZryKDVWts-WvL-197" style="edgeStyle=none;shape=connector;rounded=0;orthogonalLoop=1;jettySize=auto;html=1;entryX=0;entryY=1;entryDx=0;entryDy=0;labelBackgroundColor=default;strokeColor=default;strokeWidth=2;fontFamily=Helvetica;fontSize=12;fontColor=default;endArrow=none;" edge="1" parent="1" source="wsspim9ZryKDVWts-WvL-114" target="wsspim9ZryKDVWts-WvL-121">
          <mxGeometry relative="1" as="geometry" />
        </mxCell>
        <mxCell id="wsspim9ZryKDVWts-WvL-203" style="edgeStyle=none;shape=connector;rounded=0;orthogonalLoop=1;jettySize=auto;html=1;labelBackgroundColor=default;strokeColor=default;strokeWidth=2;fontFamily=Helvetica;fontSize=12;fontColor=default;endArrow=none;" edge="1" parent="1" source="wsspim9ZryKDVWts-WvL-114">
          <mxGeometry relative="1" as="geometry">
            <mxPoint x="350" y="840" as="targetPoint" />
          </mxGeometry>
        </mxCell>
        <mxCell id="wsspim9ZryKDVWts-WvL-114" value="Registro" style="whiteSpace=wrap;html=1;rounded=0;strokeWidth=2;" vertex="1" parent="1">
          <mxGeometry x="120" y="864.12" width="120" height="60" as="geometry" />
        </mxCell>
        <mxCell id="wsspim9ZryKDVWts-WvL-121" value="nome" style="ellipse;whiteSpace=wrap;align=right;rounded=0;shadow=0;glass=0;sketch=0;fontSize=12;strokeWidth=2;gradientColor=none;spacingRight=26;spacingBottom=0;fontFamily=Helvetica;fontColor=default;" vertex="1" parent="1">
          <mxGeometry x="245" y="811.12" width="25" height="14" as="geometry" />
        </mxCell>
        <mxCell id="wsspim9ZryKDVWts-WvL-154" value="" style="ellipse;whiteSpace=wrap;align=right;rounded=0;shadow=0;glass=0;sketch=0;fontSize=12;strokeWidth=2;gradientColor=none;spacingRight=26;spacingBottom=0;fontFamily=Helvetica;fontColor=default;" vertex="1" parent="1">
          <mxGeometry x="200" y="773.12" width="25" height="14" as="geometry" />
        </mxCell>
        <mxCell id="wsspim9ZryKDVWts-WvL-155" value="" style="ellipse;whiteSpace=wrap;align=right;rounded=0;shadow=0;glass=0;sketch=0;fontSize=12;strokeWidth=2;gradientColor=none;spacingRight=26;spacingBottom=0;fontFamily=Helvetica;fontColor=default;" vertex="1" parent="1">
          <mxGeometry x="340" y="825.12" width="25" height="14" as="geometry" />
        </mxCell>
        <mxCell id="wsspim9ZryKDVWts-WvL-159" value="HorÃ¡rio de entrada" style="text;html=1;align=center;verticalAlign=middle;resizable=0;points=[];autosize=1;strokeColor=none;fillColor=none;fontSize=12;fontFamily=Helvetica;fontColor=default;" vertex="1" parent="1">
          <mxGeometry x="145" y="740.12" width="130" height="30" as="geometry" />
        </mxCell>
        <mxCell id="wsspim9ZryKDVWts-WvL-165" style="edgeStyle=none;shape=connector;rounded=0;orthogonalLoop=1;jettySize=auto;html=1;labelBackgroundColor=default;strokeColor=default;strokeWidth=2;fontFamily=Helvetica;fontSize=12;fontColor=default;endArrow=none;" edge="1" parent="1" source="wsspim9ZryKDVWts-WvL-163" target="wsspim9ZryKDVWts-WvL-1">
          <mxGeometry relative="1" as="geometry" />
        </mxCell>
        <mxCell id="wsspim9ZryKDVWts-WvL-163" value="emprega" style="rhombus;whiteSpace=wrap;html=1;rounded=0;strokeWidth=2;" vertex="1" parent="1">
          <mxGeometry x="169.55" y="160" width="60" height="60" as="geometry" />
        </mxCell>
        <mxCell id="wsspim9ZryKDVWts-WvL-168" value="" style="edgeStyle=none;shape=connector;rounded=0;orthogonalLoop=1;jettySize=auto;html=1;labelBackgroundColor=default;strokeColor=default;strokeWidth=2;fontFamily=Helvetica;fontSize=12;fontColor=default;endArrow=none;" edge="1" parent="1" source="wsspim9ZryKDVWts-WvL-166" target="wsspim9ZryKDVWts-WvL-1">
          <mxGeometry relative="1" as="geometry" />
        </mxCell>
        <mxCell id="wsspim9ZryKDVWts-WvL-166" value="Frequenta" style="rhombus;whiteSpace=wrap;html=1;rounded=0;strokeWidth=2;" vertex="1" parent="1">
          <mxGeometry x="75" y="190" width="80" height="80" as="geometry" />
        </mxCell>
        <mxCell id="wsspim9ZryKDVWts-WvL-184" value="" style="edgeStyle=none;shape=connector;rounded=0;orthogonalLoop=1;jettySize=auto;html=1;labelBackgroundColor=default;strokeColor=default;strokeWidth=2;fontFamily=Helvetica;fontSize=12;fontColor=default;endArrow=none;" edge="1" parent="1" source="wsspim9ZryKDVWts-WvL-179" target="wsspim9ZryKDVWts-WvL-183">
          <mxGeometry relative="1" as="geometry" />
        </mxCell>
        <mxCell id="wsspim9ZryKDVWts-WvL-186" style="edgeStyle=none;shape=connector;rounded=0;orthogonalLoop=1;jettySize=auto;html=1;entryX=1;entryY=0;entryDx=0;entryDy=0;labelBackgroundColor=default;strokeColor=default;strokeWidth=2;fontFamily=Helvetica;fontSize=12;fontColor=default;endArrow=none;" edge="1" parent="1" source="wsspim9ZryKDVWts-WvL-179" target="wsspim9ZryKDVWts-WvL-185">
          <mxGeometry relative="1" as="geometry" />
        </mxCell>
        <mxCell id="wsspim9ZryKDVWts-WvL-179" value="Efetua" style="rhombus;whiteSpace=wrap;html=1;rounded=0;strokeWidth=2;" vertex="1" parent="1">
          <mxGeometry x="150" y="620" width="60" height="60" as="geometry" />
        </mxCell>
        <mxCell id="wsspim9ZryKDVWts-WvL-183" value="Pagamento" style="whiteSpace=wrap;html=1;rounded=0;strokeWidth=2;" vertex="1" parent="1">
          <mxGeometry x="270" y="630" width="120" height="60" as="geometry" />
        </mxCell>
        <mxCell id="wsspim9ZryKDVWts-WvL-185" value="mensalidade" style="ellipse;whiteSpace=wrap;align=right;rounded=0;shadow=0;glass=0;sketch=0;fontSize=12;strokeWidth=2;gradientColor=none;spacingRight=26;spacingBottom=0;fontFamily=Helvetica;fontColor=default;" vertex="1" parent="1">
          <mxGeometry x="197.5" y="585" width="25" height="14" as="geometry" />
        </mxCell>
        <mxCell id="wsspim9ZryKDVWts-WvL-211" style="edgeStyle=none;shape=connector;rounded=0;orthogonalLoop=1;jettySize=auto;html=1;exitX=0.5;exitY=1;exitDx=0;exitDy=0;entryX=0;entryY=1;entryDx=0;entryDy=0;labelBackgroundColor=default;strokeColor=default;strokeWidth=2;fontFamily=Helvetica;fontSize=12;fontColor=default;endArrow=none;" edge="1" parent="1" source="wsspim9ZryKDVWts-WvL-95" target="wsspim9ZryKDVWts-WvL-95">
          <mxGeometry relative="1" as="geometry" />
        </mxCell>
        <mxCell id="wsspim9ZryKDVWts-WvL-219" value="HorÃ¡rio de saÃ­da" style="text;html=1;align=center;verticalAlign=middle;resizable=0;points=[];autosize=1;strokeColor=none;fillColor=none;fontSize=12;fontFamily=Helvetica;fontColor=default;" vertex="1" parent="1">
          <mxGeometry x="310" y="795.12" width="120" height="30" as="geometry" />
        </mxCell>
        <mxCell id="wsspim9ZryKDVWts-WvL-231" style="edgeStyle=none;shape=connector;rounded=0;orthogonalLoop=1;jettySize=auto;html=1;exitX=0.5;exitY=1;exitDx=0;exitDy=0;labelBackgroundColor=default;strokeColor=default;strokeWidth=2;fontFamily=Helvetica;fontSize=12;fontColor=default;endArrow=none;" edge="1" parent="1" source="wsspim9ZryKDVWts-WvL-228" target="wsspim9ZryKDVWts-WvL-183">
          <mxGeometry relative="1" as="geometry" />
        </mxCell>
        <mxCell id="wsspim9ZryKDVWts-WvL-242" style="edgeStyle=none;shape=connector;rounded=0;orthogonalLoop=1;jettySize=auto;html=1;entryX=0;entryY=1;entryDx=0;entryDy=0;labelBackgroundColor=default;strokeColor=default;strokeWidth=2;fontFamily=Helvetica;fontSize=12;fontColor=default;endArrow=none;" edge="1" parent="1" source="wsspim9ZryKDVWts-WvL-228" target="wsspim9ZryKDVWts-WvL-241">
          <mxGeometry relative="1" as="geometry" />
        </mxCell>
        <mxCell id="wsspim9ZryKDVWts-WvL-228" value="efetua" style="rhombus;whiteSpace=wrap;html=1;rounded=0;strokeWidth=2;" vertex="1" parent="1">
          <mxGeometry x="270" y="539" width="60" height="60" as="geometry" />
        </mxCell>
        <mxCell id="wsspim9ZryKDVWts-WvL-236" value="" style="edgeStyle=none;shape=connector;rounded=0;orthogonalLoop=1;jettySize=auto;html=1;labelBackgroundColor=default;strokeColor=default;strokeWidth=2;fontFamily=Helvetica;fontSize=12;fontColor=default;endArrow=none;" edge="1" parent="1" source="wsspim9ZryKDVWts-WvL-233" target="wsspim9ZryKDVWts-WvL-235">
          <mxGeometry relative="1" as="geometry" />
        </mxCell>
        <mxCell id="wsspim9ZryKDVWts-WvL-239" style="edgeStyle=none;shape=connector;rounded=0;orthogonalLoop=1;jettySize=auto;html=1;entryX=0;entryY=0.5;entryDx=0;entryDy=0;labelBackgroundColor=default;strokeColor=default;strokeWidth=2;fontFamily=Helvetica;fontSize=12;fontColor=default;endArrow=none;" edge="1" parent="1" source="wsspim9ZryKDVWts-WvL-233" target="wsspim9ZryKDVWts-WvL-238">
          <mxGeometry relative="1" as="geometry" />
        </mxCell>
        <mxCell id="wsspim9ZryKDVWts-WvL-233" value="Comprovante de saÃ­da" style="whiteSpace=wrap;html=1;rounded=0;strokeWidth=2;" vertex="1" parent="1">
          <mxGeometry x="522.5" y="525" width="120" height="60" as="geometry" />
        </mxCell>
        <mxCell id="wsspim9ZryKDVWts-WvL-235" value="" style="ellipse;whiteSpace=wrap;html=1;rounded=0;strokeWidth=2;" vertex="1" parent="1">
          <mxGeometry x="675" y="580" width="40" height="20" as="geometry" />
        </mxCell>
        <mxCell id="wsspim9ZryKDVWts-WvL-237" value="HorÃ¡rio de saÃ­da" style="text;html=1;align=center;verticalAlign=middle;resizable=0;points=[];autosize=1;strokeColor=none;fillColor=none;fontSize=12;fontFamily=Helvetica;fontColor=default;" vertex="1" parent="1">
          <mxGeometry x="665" y="550" width="120" height="30" as="geometry" />
        </mxCell>
        <mxCell id="wsspim9ZryKDVWts-WvL-238" value="" style="ellipse;whiteSpace=wrap;html=1;rounded=0;strokeWidth=2;" vertex="1" parent="1">
          <mxGeometry x="640" y="610" width="40" height="20" as="geometry" />
        </mxCell>
        <mxCell id="wsspim9ZryKDVWts-WvL-240" value="Valor cobrado" style="text;html=1;align=center;verticalAlign=middle;resizable=0;points=[];autosize=1;strokeColor=none;fillColor=none;fontSize=12;fontFamily=Helvetica;fontColor=default;" vertex="1" parent="1">
          <mxGeometry x="607" y="630" width="100" height="30" as="geometry" />
        </mxCell>
        <mxCell id="wsspim9ZryKDVWts-WvL-241" value="" style="ellipse;whiteSpace=wrap;html=1;rounded=0;strokeWidth=2;" vertex="1" parent="1">
          <mxGeometry x="330" y="525" width="40" height="20" as="geometry" />
        </mxCell>
        <mxCell id="wsspim9ZryKDVWts-WvL-243" value="Tempo de uso" style="text;html=1;align=center;verticalAlign=middle;resizable=0;points=[];autosize=1;strokeColor=none;fillColor=none;fontSize=12;fontFamily=Helvetica;fontColor=default;" vertex="1" parent="1">
          <mxGeometry x="305" y="495" width="100" height="30" as="geometry" />
        </mxCell>
      </root>
    </mxGraphModel>
  </diagram>
</mxfile>
